HIERARCHY
ROOT Hips
{
	OFFSET 0.000000 0.000000 0.000000 
	CHANNELS 6 Xposition Yposition Zposition Yrotation Zrotation Xrotation 
	JOINT Lumbar
	{
		OFFSET 0.000000 0.000000 0.000000 
		CHANNELS 3 Zrotation Xrotation Yrotation
		JOINT Neck
		{
			OFFSET 0.000000 0.445665 0.000000 
			CHANNELS 3 Zrotation Xrotation Yrotation
			End Site
			{
				OFFSET 0.000000 0.227535 0.000000 
			}
		}
		JOINT RightShoulder
		{
			OFFSET 0.019635 0.377685 0.194865 
			CHANNELS 3 Zrotation Xrotation Yrotation
			JOINT RightElbow
			{
				OFFSET 0.000000 -0.243375 0.000000 
				CHANNELS 2 Zrotation Yrotation
				JOINT RightWrist
				{
					OFFSET 0.000000 -0.264825 0.000000 
					CHANNELS 2 Zrotation Xrotation
					End Site
					{
						OFFSET 0.006600 -0.176220 0.000990 
					}
				}
			}
		}
		JOINT LeftShoulder
		{
			OFFSET 0.019635 0.377685 -0.194865 
			CHANNELS 3 Zrotation Xrotation Yrotation
			JOINT LeftElbow
			{
				OFFSET 0.000000 -0.243375 0.000000 
				CHANNELS 2 Zrotation Yrotation
				JOINT LeftWrist
				{
					OFFSET 0.000000 -0.264825 0.000000 
					CHANNELS 2 Zrotation Xrotation
					End Site
					{
						OFFSET 0.006600 -0.176220 -0.000990 
					}
				}
			}
		}
	}
	JOINT RightHip
	{
		OFFSET 0.052140 -0.069960 0.075570 
		CHANNELS 3 Zrotation Xrotation Yrotation
		JOINT RightKnee
		{
			OFFSET 0.000000 -0.402270 0.000000 
			CHANNELS 1 Zrotation
			JOINT RightAnkle
			{
				OFFSET 0.000000 -0.404085 0.000000 
				CHANNELS 3 Zrotation Xrotation Yrotation
				End Site
				{
					OFFSET 0.204105 -0.089430 0.008415 
				}
			}
		}
	}
	JOINT LeftHip
	{
		OFFSET 0.052140 -0.069960 -0.075570 
		CHANNELS 3 Zrotation Xrotation Yrotation
		JOINT LeftKnee
		{
			OFFSET 0.000000 -0.402270 0.000000 
			CHANNELS 1 Zrotation
			JOINT LeftAnkle
			{
				OFFSET 0.000000 -0.404085 0.000000 
				CHANNELS 3 Zrotation Xrotation Yrotation
				End Site
				{
					OFFSET 0.204105 -0.089430 -0.008415 
				}
			}
		}
	}
}
MOTION
Frames: 31
Frame Time: 0.02
0.8369 0.9325 0.04612 175.68312 0 -5.40055 -3.63149 3.86423 -2.26424 -23.75791 9.4038 10.97321 82.78192 -35.19668 54.75887 75.45581 150.95874 -35.74627 -17.79014 14.7098 9.9992 -20.93214 92.70308 -134.94149 -59.91928 9.92055 15.53789 -6.98725 8.08599 -24.06895 -1.96202 -3.09197 -8.86005 3.05264 12.36974 -3.4177 -23.47697 15.0426 10.95387 8.34424
0.82981 0.93047 0.03294 176.06474 0 -5.37044 -3.52532 3.83304 -2.43232 -23.76937 9.477 10.77804 86.86298 -36.03972 54.85759 73.68528 150.15975 -33.64277 -17.65347 14.20795 9.59759 -20.9217 92.47911 -134.6854 -59.16244 9.8768 15.62427 -6.89784 8.97916 -24.86638 -1.98357 -2.96984 -8.15736 2.7106 13.06221 -3.9002 -23.51445 14.8264 10.85169 8.53888
0.82201 0.92835 0.01818 176.59041 0 -5.34326 -3.3931 3.83548 -2.56031 -23.78179 9.42445 10.42886 91.10245 -37.39152 54.731 72.25372 147.7133 -31.86449 -16.92903 13.70901 9.40325 -20.85248 92.31913 -134.25596 -58.2998 9.79422 15.64336 -6.62501 9.72321 -25.95037 -1.6996 -2.83169 -7.10726 2.34424 13.85131 -4.52351 -23.50574 14.51911 10.62718 8.70514
0.81456 0.92633 0.00412 177.0548 0 -5.31314 -3.28245 3.83154 -2.71789 -23.78654 9.41395 10.13516 95.24419 -38.52391 54.67329 70.68731 145.92891 -29.99831 -16.45547 13.20117 9.13307 -20.79239 92.13542 -133.89697 -57.50294 9.72716 15.67387 -6.43059 10.47541 -26.87287 -1.53401 -2.70865 -6.24691 1.99585 14.60059 -5.06631 -23.51324 14.23215 10.43356 8.85861
0.80692 0.924 -0.0099 177.50404 0 -5.28946 -3.12898 3.78955 -2.83139 -23.82495 9.46699 9.90023 99.50523 -39.58274 54.73758 69.02493 144.52558 -27.87746 -16.0593 12.70971 8.77586 -20.78929 91.92699 -133.57054 -56.63306 9.6684 15.78617 -6.2555 11.47828 -27.94165 -1.45247 -2.55044 -5.24778 1.61595 15.33805 -5.68037 -23.54111 14.03489 10.33731 9.11199
0.79955 0.92233 -0.02436 178.01799 0 -5.25189 -3.05932 3.83447 -3.02403 -23.79293 9.35709 9.50676 103.52437 -40.92584 54.47803 67.65291 141.93714 -26.36943 -15.36185 12.20128 8.65935 -20.66974 91.78604 -133.14132 -55.88776 9.58471 15.71225 -5.99852 11.92719 -28.76763 -1.12759 -2.46196 -4.4563 1.29729 16.11724 -6.17704 -23.5146 13.62758 10.01523 9.1593
0.79302 0.92243 -0.03981 178.67656 0 -5.19178 -3.22551 4.11771 -3.46492 -23.55798 8.83734 8.71961 107.15826 -42.9113 53.66642 66.94632 136.41214 -26.41731 -13.94066 11.52145 9.07828 -20.12623 91.81765 -132.40419 -55.53601 9.4249 15.13444 -5.54343 10.84289 -28.86087 -0.16371 -2.57642 -4.33006 1.14755 17.03417 -6.33639 -23.36049 12.67968 9.05745 8.57588
0.78681 0.92322 -0.05562 179.39473 0 -5.11514 -3.47744 4.4864 -3.98248 -23.25313 8.15611 7.77772 110.47868 -45.1685 52.48626 66.53046 129.76429 -27.07898 -12.24195 10.85163 9.74858 -19.4913 91.91597 -131.57999 -55.31046 9.24394 14.37241 -5.01513 9.21312 -28.69615 1.02678 -2.76071 -4.42428 1.06173 17.98089 -6.36804 -23.15133 11.52153 7.88479 7.79877
0.78053 0.92375 -0.07116 180.08444 0 -5.03497 -3.69173 4.81158 -4.4521 -22.98506 7.5432 6.90255 113.74418 -47.32072 51.29772 66.01952 123.66696 -27.49869 -10.69133 10.25441 10.35383 -18.97441 91.98143 -130.84075 -55.00966 9.08412 13.69861 -4.53178 7.85925 -28.64292 2.08653 -2.90925 -4.41364 0.95081 18.88368 -6.44532 -22.96007 10.44706 6.83861 7.15619
0.77391 0.92405 -0.08724 180.78495 0 -4.99989 -3.89985 5.15682 -4.97717 -22.6958 6.94834 6.03604 117.87873 -49.42604 50.85726 65.36879 117.32819 -27.78124 -9.02573 9.31686 10.75306 -18.12817 92.05541 -129.91027 -54.77435 8.87604 13.00371 -3.9939 6.38291 -28.62557 3.27474 -3.07442 -4.41012 0.82205 19.91858 -6.58324 -22.79701 9.41494 5.66683 6.31793
0.76809 0.92498 -0.10224 181.47535 0 -4.86893 -4.14105 5.48118 -5.40355 -22.43421 6.27785 5.11817 120.08839 -51.66955 48.75633 65.06764 111.26522 -28.48151 -7.54375 9.10891 11.64533 -17.95232 92.13222 -129.35169 -54.442 8.76174 12.30955 -3.55314 5.03291 -28.46672 4.24439 -3.22139 -4.44917 0.74629 20.68363 -6.55846 -22.56301 8.25159 4.70672 5.8395
0.76434 0.92748 -0.11434 182.12058 0 -4.46056 -4.45655 5.71758 -5.5553 -22.26524 5.45029 4.0858 117.39777 -54.37249 42.33222 65.70999 106.09103 -30.26286 -6.61869 10.75766 13.77556 -19.6006 92.14718 -129.9042 -53.73989 8.92998 11.6659 -3.41165 4.17668 -27.99301 4.56055 -3.30454 -4.54919 0.79832 20.69964 -6.15396 -22.14577 6.73053 4.38914 6.41802
0.7614 0.93056 -0.12532 182.7527 0 -3.95962 -4.80141 5.93139 -5.60223 -22.12719 4.5508 3.0104 112.72578 -57.17285 34.23126 66.68091 101.26983 -32.42568 -5.89444 13.16982 16.40198 -21.93271 92.16848 -130.81857 -52.94758 9.18951 11.02922 -3.36872 3.46588 -27.38207 4.64631 -3.3665 -4.68655 0.9019 20.44199 -5.58438 -21.66028 5.09515 4.29176 7.36059
0.75814 0.93336 -0.13672 183.3927 0 -3.51169 -5.1309 6.16184 -5.6864 -21.97489 3.6765 1.96169 108.72699 -59.83511 26.77097 67.4703 96.39084 -34.36314 -5.09281 15.33393 18.8432 -23.98894 92.22643 -131.53267 -52.24615 9.39606 10.38725 -3.27317 2.68062 -26.82391 4.83248 -3.43584 -4.81045 0.98423 20.30684 -5.06184 -21.20572 3.54161 4.09043 8.12863
0.7547 0.93629 -0.14849 184.02944 0 -3.01602 -5.4735 6.36934 -5.81694 -21.81887 2.82705 0.87506 105.64016 -62.915 19.75954 68.41555 91.03457 -36.54814 -4.2219 17.07912 21.13083 -25.90914 92.13566 -132.41349 -51.34657 9.65266 9.74713 -3.2087 1.90802 -26.2968 5.04511 -3.51674 -4.92754 1.06057 20.18044 -4.64434 -20.74605 1.84922 3.89725 8.93619
0.75181 0.93906 -0.15921 184.6657 0 -2.59927 -5.79266 6.61697 -5.82521 -21.68151 1.91229 -0.13788 100.23327 -65.12989 11.48328 69.09842 86.77583 -38.29208 -3.54744 19.88024 23.84332 -28.25807 92.33547 -133.01079 -50.82646 9.82411 9.10801 -3.10297 1.15515 -25.67653 5.14465 -3.56806 -5.0642 1.15954 19.97072 -3.98146 -20.28597 0.42825 3.74301 9.74048
0.7503 0.94132 -0.16739 185.33152 0 -2.41221 -6.05633 6.99003 -5.51911 -21.56552 0.82495 -0.96051 88.51515 -65.05679 -0.41503 69.0726 85.43118 -38.79019 -3.36255 25.38034 27.68632 -31.77132 93.50755 -132.93986 -51.46421 9.76355 8.46441 -2.86817 0.38619 -24.82686 4.98877 -3.53858 -5.25057 1.31897 19.59448 -2.58773 -19.80445 -0.27048 3.63602 10.53271
0.74931 0.94339 -0.17452 185.99138 0 -2.30981 -6.29166 7.40177 -5.09351 -21.4717 -0.32198 -1.70219 74.60842 -64.08646 -13.42366 68.74931 85.19133 -38.81623 -3.37084 31.91352 31.92222 -35.659 94.94092 -132.53584 -52.47046 9.61002 7.8237 -2.58747 -0.35858 -23.8907 4.7258 -3.48037 -5.45318 1.49708 19.14399 -0.9709 -19.33255 -0.68087 3.56229 11.29402
0.74805 0.94552 -0.18206 186.63604 0 -2.17594 -6.52912 7.7898 -4.72398 -21.38302 -1.43561 -2.46468 61.95613 -63.44221 -25.57071 68.5009 84.47008 -39.012 -3.29427 38.00457 35.92726 -39.2868 96.14007 -132.14871 -53.24901 9.48185 7.18603 -2.32194 -1.08875 -22.99895 4.51029 -3.43792 -5.64441 1.65936 18.72998 0.48181 -18.88014 -1.18574 3.47944 12.01402
0.74696 0.94779 -0.18983 187.35764 0 -2.00954 -6.8141 8.20434 -4.34395 -21.23155 -2.58217 -3.29654 48.12283 -63.14096 -39.29203 68.52943 83.6691 -39.40941 -3.21106 44.04294 40.17691 -43.34304 97.82112 -132.33285 -54.27654 9.42611 6.52946 -2.08259 -1.92245 -22.07998 4.29181 -3.38389 -5.85483 1.8545 18.29623 2.20538 -18.32253 -1.84843 3.38138 12.98026
0.74562 0.9497 -0.19688 187.91551 0 -1.93186 -6.99164 8.57143 -3.95809 -21.2152 -3.66826 -3.96372 36.27407 -61.91771 -49.96568 67.89279 83.29711 -39.27119 -3.18632 50.38105 43.99598 -46.55451 98.56777 -131.25471 -54.87698 9.19884 5.91371 -1.77807 -2.53633 -21.19991 4.0573 -3.34677 -6.02752 1.98492 17.88784 3.41537 -17.98979 -2.11322 3.31683 13.42164
0.74343 0.95067 -0.20237 188.04185 0 -2.08192 -6.89042 8.81248 -3.59232 -21.57154 -4.61545 -4.19736 30.29112 -58.30717 -52.0328 65.61078 83.79288 -37.75206 -3.26324 57.67207 46.59043 -47.61657 96.61024 -126.67955 -54.19022 8.4986 5.40329 -1.29148 -2.55057 -20.44191 3.80341 -3.36895 -6.10142 1.93164 17.58348 3.15494 -18.25235 -1.34311 3.36593 12.42297
0.74097 0.95126 -0.20714 188.00024 0 -2.31811 -6.67977 9.00178 -3.22465 -22.06211 -5.49132 -4.26664 26.4173 -53.81032 -50.97301 62.65061 84.68606 -35.7108 -3.3932 65.14986 48.72138 -47.76195 93.71727 -120.86645 -53.06926 7.63313 4.93528 -0.7431 -2.34456 -19.72832 3.53844 -3.40827 -6.13519 1.8122 17.30579 2.36986 -18.74435 -0.18423 3.44258 10.8982
0.73865 0.95202 -0.21215 188.02284 0 -2.51312 -6.51199 9.20543 -2.85303 -22.4877 -6.37161 -4.41122 21.68802 -49.75891 -51.28063 59.91528 85.43029 -33.91874 -3.50675 72.29647 51.0259 -48.1418 91.2884 -115.67247 -52.1533 6.85672 4.45196 -0.231 -2.23942 -18.99896 3.28063 -3.43607 -6.18053 1.72332 17.00668 1.82111 -19.14851 0.79422 3.48439 9.60736
0.73631 0.95281 -0.21752 188.09576 0 -2.71985 -6.37257 9.44931 -2.49495 -22.93049 -7.3725 -4.55428 16.45244 -45.49712 -51.84588 57.50186 86.09298 -32.06268 -3.59672 80.53912 53.51246 -49.29923 88.69272 -110.20646 -51.19888 6.01612 3.9512 0.31813 -2.13111 -18.2465 3.01015 -3.47826 -6.25313 1.63386 16.74343 1.2843 -19.48869 1.80287 3.61543 8.32447
0.73392 0.95344 -0.22195 188.02484 0 -2.92123 -6.14798 9.59638 -2.11299 -23.36951 -8.10409 -4.65773 12.79302 -41.47356 -51.12813 54.2856 86.9887 -30.21887 -3.7433 86.50503 55.49018 -48.62047 86.23317 -105.04494 -50.24031 5.27372 3.49783 0.80313 -1.97615 -17.55555 2.76461 -3.49535 -6.26105 1.52862 16.41365 0.60116 -20.01012 2.83168 3.5746 6.9167
0.73138 0.95372 -0.22413 187.59167 0 -3.089 -5.71921 9.49072 -1.63799 -23.76162 -8.11153 -4.7343 13.05668 -38.3412 -47.52793 48.80575 88.5717 -28.56827 -4.05484 86.34653 56.2942 -43.04767 84.25082 -100.78621 -49.16055 4.82089 3.1568 1.10476 -1.75785 -17.01041 2.59354 -3.43539 -6.0842 1.40457 15.88748 -0.41223 -21.03041 3.86824 2.98267 5.14994
0.7288 0.95387 -0.22536 187.02109 0 -3.2476 -5.20797 9.28903 -1.14431 -24.14616 -7.84937 -4.76999 14.83038 -35.48239 -42.75733 42.58283 90.34581 -26.94666 -4.417 83.85034 56.57666 -35.672 82.45732 -96.91911 -48.12185 4.4767 2.86387 1.33767 -1.4984 -16.52911 2.44801 -3.3504 -5.84648 1.26521 15.2952 -1.54638 -22.21473 4.90214 2.22871 3.30033
0.72626 0.95408 -0.22692 186.517 0 -3.4085 -4.73173 9.12959 -0.67841 -24.53608 -7.70948 -4.79605 15.86514 -32.48978 -38.5866 36.84056 91.93145 -25.29053 -4.74023 82.2772 57.02025 -29.14303 80.66341 -93.03759 -47.21454 4.09827 2.55384 1.59628 -1.25006 -16.02692 2.28938 -3.27932 -5.64711 1.12713 14.73735 -2.58976 -23.28848 5.90389 1.59569 1.58516
0.7236 0.95426 -0.22886 185.98843 0 -3.58025 -4.26165 8.97351 -0.13276 -24.92132 -7.56971 -4.9321 17.1881 -29.4984 -34.02425 30.46951 93.95143 -23.69687 -5.13068 81.28215 57.77405 -22.44038 78.48844 -88.43914 -45.69256 3.65204 2.2238 1.88118 -1.02519 -15.48958 2.13637 -3.19807 -5.40149 1.01075 14.16097 -3.80012 -24.52337 7.0572 0.76782 -0.54827
0.72119 0.95448 -0.2298 185.48235 0 -3.72619 -3.76116 8.7892 0.25347 -25.31426 -7.36466 -4.83565 18.2502 -26.59025 -30.03556 25.24229 95.11845 -21.99832 -5.3949 78.54708 57.7567 -15.71631 77.14908 -85.42179 -45.42393 3.3726 1.94806 2.09324 -0.74567 -15.04301 1.97817 -3.13189 -5.23796 0.84637 13.60829 -4.68798 -25.45732 7.89291 0.30206 -1.83433
